# MagicaVoxel @ Ephtracy

# group
o 

# material
mtllib Body_Strong_Hands.mtl
usemtl palette

# normals
vn -1 0 0
vn 1 0 0
vn 0 0 1
vn 0 0 -1
vn 0 -1 0
vn 0 1 0

# texcoords
vt 0.236328 0.5
vt 0.978516 0.5
vt 0.982422 0.5

# verts
v -0.8 1 0.2
v -0.8 1 0.1
v -0.8 1 -0.2
v -0.8 1 -0.3
v -0.8 1.3 0.2
v -0.8 1.3 0.1
v -0.8 1.3 -0.2
v -0.8 1.3 -0.3
v -0.7 1.1 0.3
v -0.7 1.1 0.2
v -0.7 1.1 0.1
v -0.7 1.1 -2.98023e-008
v -0.7 1.1 -0.1
v -0.7 1.1 -0.2
v -0.7 1.1 -0.3
v -0.7 1.1 -0.4
v -0.7 1.2 0.3
v -0.7 1.2 0.2
v -0.7 1.2 0.1
v -0.7 1.2 -2.98023e-008
v -0.7 1.2 -0.1
v -0.7 1.2 -0.2
v -0.7 1.2 -0.3
v -0.7 1.2 -0.4
v 0.5 1 0.2
v 0.5 1 0.1
v 0.5 1 -0.2
v 0.5 1 -0.3
v 0.5 1.3 0.2
v 0.5 1.3 0.1
v 0.5 1.3 -0.2
v 0.5 1.3 -0.3
v 0.6 1.1 0.3
v 0.6 1.1 0.2
v 0.6 1.1 0.1
v 0.6 1.1 -2.98023e-008
v 0.6 1.1 -0.1
v 0.6 1.1 -0.2
v 0.6 1.1 -0.3
v 0.6 1.1 -0.4
v 0.6 1.2 0.3
v 0.6 1.2 0.2
v 0.6 1.2 0.1
v 0.6 1.2 -2.98023e-008
v 0.6 1.2 -0.1
v 0.6 1.2 -0.2
v 0.6 1.2 -0.3
v 0.6 1.2 -0.4
v -0.6 1.1 0.3
v -0.6 1.1 0.2
v -0.6 1.1 0.1
v -0.6 1.1 -2.98023e-008
v -0.6 1.1 -0.1
v -0.6 1.1 -0.2
v -0.6 1.1 -0.3
v -0.6 1.1 -0.4
v -0.6 1.2 0.3
v -0.6 1.2 0.2
v -0.6 1.2 0.1
v -0.6 1.2 -2.98023e-008
v -0.6 1.2 -0.1
v -0.6 1.2 -0.2
v -0.6 1.2 -0.3
v -0.6 1.2 -0.4
v -0.5 1 0.2
v -0.5 1 0.1
v -0.5 1 -0.2
v -0.5 1 -0.3
v -0.5 1.3 0.2
v -0.5 1.3 0.1
v -0.5 1.3 -0.2
v -0.5 1.3 -0.3
v 0.7 1.1 0.3
v 0.7 1.1 0.2
v 0.7 1.1 0.1
v 0.7 1.1 -2.98023e-008
v 0.7 1.1 -0.1
v 0.7 1.1 -0.2
v 0.7 1.1 -0.3
v 0.7 1.1 -0.4
v 0.7 1.2 0.3
v 0.7 1.2 0.2
v 0.7 1.2 0.1
v 0.7 1.2 -2.98023e-008
v 0.7 1.2 -0.1
v 0.7 1.2 -0.2
v 0.7 1.2 -0.3
v 0.7 1.2 -0.4
v 0.8 1 0.2
v 0.8 1 0.1
v 0.8 1 -0.2
v 0.8 1 -0.3
v 0.8 1.3 0.2
v 0.8 1.3 0.1
v 0.8 1.3 -0.2
v 0.8 1.3 -0.3
v -0.7 1.1 0.3
v -0.7 1.2 0.3
v -0.6 1.1 0.3
v -0.6 1.2 0.3
v 0.6 1.1 0.3
v 0.6 1.2 0.3
v 0.7 1.1 0.3
v 0.7 1.2 0.3
v -0.8 1 0.2
v -0.8 1.3 0.2
v -0.7 1.1 0.2
v -0.7 1.2 0.2
v -0.6 1.1 0.2
v -0.6 1.2 0.2
v -0.5 1 0.2
v -0.5 1.3 0.2
v 0.5 1 0.2
v 0.5 1.3 0.2
v 0.6 1.1 0.2
v 0.6 1.2 0.2
v 0.7 1.1 0.2
v 0.7 1.2 0.2
v 0.8 1 0.2
v 0.8 1.3 0.2
v -0.8 1 -0.2
v -0.8 1.3 -0.2
v -0.7 1.1 -0.2
v -0.7 1.2 -0.2
v -0.6 1.1 -0.2
v -0.6 1.2 -0.2
v -0.5 1 -0.2
v -0.5 1.3 -0.2
v 0.5 1 -0.2
v 0.5 1.3 -0.2
v 0.6 1.1 -0.2
v 0.6 1.2 -0.2
v 0.7 1.1 -0.2
v 0.7 1.2 -0.2
v 0.8 1 -0.2
v 0.8 1.3 -0.2
v -0.8 1 0.1
v -0.8 1.3 0.1
v -0.7 1.1 0.1
v -0.7 1.2 0.1
v -0.6 1.1 0.1
v -0.6 1.2 0.1
v -0.5 1 0.1
v -0.5 1.3 0.1
v 0.5 1 0.1
v 0.5 1.3 0.1
v 0.6 1.1 0.1
v 0.6 1.2 0.1
v 0.7 1.1 0.1
v 0.7 1.2 0.1
v 0.8 1 0.1
v 0.8 1.3 0.1
v -0.8 1 -0.3
v -0.8 1.3 -0.3
v -0.7 1.1 -0.3
v -0.7 1.2 -0.3
v -0.6 1.1 -0.3
v -0.6 1.2 -0.3
v -0.5 1 -0.3
v -0.5 1.3 -0.3
v 0.5 1 -0.3
v 0.5 1.3 -0.3
v 0.6 1.1 -0.3
v 0.6 1.2 -0.3
v 0.7 1.1 -0.3
v 0.7 1.2 -0.3
v 0.8 1 -0.3
v 0.8 1.3 -0.3
v -0.7 1.1 -0.4
v -0.7 1.2 -0.4
v -0.6 1.1 -0.4
v -0.6 1.2 -0.4
v 0.6 1.1 -0.4
v 0.6 1.2 -0.4
v 0.7 1.1 -0.4
v 0.7 1.2 -0.4
v -0.8 1 0.2
v -0.5 1 0.2
v 0.5 1 0.2
v 0.8 1 0.2
v -0.8 1 0.1
v -0.5 1 0.1
v 0.5 1 0.1
v 0.8 1 0.1
v -0.8 1 -0.2
v -0.5 1 -0.2
v 0.5 1 -0.2
v 0.8 1 -0.2
v -0.8 1 -0.3
v -0.5 1 -0.3
v 0.5 1 -0.3
v 0.8 1 -0.3
v -0.7 1.1 0.3
v -0.6 1.1 0.3
v 0.6 1.1 0.3
v 0.7 1.1 0.3
v -0.7 1.1 0.2
v -0.6 1.1 0.2
v 0.6 1.1 0.2
v 0.7 1.1 0.2
v -0.7 1.1 0.1
v -0.6 1.1 0.1
v 0.6 1.1 0.1
v 0.7 1.1 0.1
v -0.7 1.1 -2.98023e-008
v -0.6 1.1 -2.98023e-008
v 0.6 1.1 -2.98023e-008
v 0.7 1.1 -2.98023e-008
v -0.7 1.1 -0.1
v -0.6 1.1 -0.1
v 0.6 1.1 -0.1
v 0.7 1.1 -0.1
v -0.7 1.1 -0.2
v -0.6 1.1 -0.2
v 0.6 1.1 -0.2
v 0.7 1.1 -0.2
v -0.7 1.1 -0.3
v -0.6 1.1 -0.3
v 0.6 1.1 -0.3
v 0.7 1.1 -0.3
v -0.7 1.1 -0.4
v -0.6 1.1 -0.4
v 0.6 1.1 -0.4
v 0.7 1.1 -0.4
v -0.7 1.2 0.3
v -0.6 1.2 0.3
v 0.6 1.2 0.3
v 0.7 1.2 0.3
v -0.7 1.2 0.2
v -0.6 1.2 0.2
v 0.6 1.2 0.2
v 0.7 1.2 0.2
v -0.7 1.2 0.1
v -0.6 1.2 0.1
v 0.6 1.2 0.1
v 0.7 1.2 0.1
v -0.7 1.2 -2.98023e-008
v -0.6 1.2 -2.98023e-008
v 0.6 1.2 -2.98023e-008
v 0.7 1.2 -2.98023e-008
v -0.7 1.2 -0.1
v -0.6 1.2 -0.1
v 0.6 1.2 -0.1
v 0.7 1.2 -0.1
v -0.7 1.2 -0.2
v -0.6 1.2 -0.2
v 0.6 1.2 -0.2
v 0.7 1.2 -0.2
v -0.7 1.2 -0.3
v -0.6 1.2 -0.3
v 0.6 1.2 -0.3
v 0.7 1.2 -0.3
v -0.7 1.2 -0.4
v -0.6 1.2 -0.4
v 0.6 1.2 -0.4
v 0.7 1.2 -0.4
v -0.8 1.3 0.2
v -0.5 1.3 0.2
v 0.5 1.3 0.2
v 0.8 1.3 0.2
v -0.8 1.3 0.1
v -0.5 1.3 0.1
v 0.5 1.3 0.1
v 0.8 1.3 0.1
v -0.8 1.3 -0.2
v -0.5 1.3 -0.2
v 0.5 1.3 -0.2
v 0.8 1.3 -0.2
v -0.8 1.3 -0.3
v -0.5 1.3 -0.3
v 0.5 1.3 -0.3
v 0.8 1.3 -0.3

# faces
f 5/3/1 2/3/1 1/3/1
f 6/3/1 2/3/1 5/3/1
f 7/3/1 4/3/1 3/3/1
f 8/3/1 4/3/1 7/3/1
f 17/2/1 10/2/1 9/2/1
f 18/2/1 10/2/1 17/2/1
f 19/2/1 12/2/1 11/2/1
f 20/1/1 13/1/1 12/1/1
f 20/2/1 12/2/1 19/2/1
f 21/2/1 14/2/1 13/2/1
f 21/1/1 13/1/1 20/1/1
f 22/2/1 14/2/1 21/2/1
f 23/2/1 16/2/1 15/2/1
f 24/2/1 16/2/1 23/2/1
f 29/3/1 26/3/1 25/3/1
f 30/3/1 26/3/1 29/3/1
f 31/3/1 28/3/1 27/3/1
f 32/3/1 28/3/1 31/3/1
f 41/2/1 34/2/1 33/2/1
f 42/2/1 34/2/1 41/2/1
f 43/2/1 36/2/1 35/2/1
f 44/1/1 37/1/1 36/1/1
f 44/2/1 36/2/1 43/2/1
f 45/2/1 38/2/1 37/2/1
f 45/1/1 37/1/1 44/1/1
f 46/2/1 38/2/1 45/2/1
f 47/2/1 40/2/1 39/2/1
f 48/2/1 40/2/1 47/2/1
f 49/2/2 50/2/2 57/2/2
f 57/2/2 50/2/2 58/2/2
f 51/2/2 52/2/2 59/2/2
f 52/1/2 53/1/2 60/1/2
f 59/2/2 52/2/2 60/2/2
f 53/2/2 54/2/2 61/2/2
f 60/1/2 53/1/2 61/1/2
f 61/2/2 54/2/2 62/2/2
f 55/2/2 56/2/2 63/2/2
f 63/2/2 56/2/2 64/2/2
f 65/3/2 66/3/2 69/3/2
f 69/3/2 66/3/2 70/3/2
f 67/3/2 68/3/2 71/3/2
f 71/3/2 68/3/2 72/3/2
f 73/2/2 74/2/2 81/2/2
f 81/2/2 74/2/2 82/2/2
f 75/2/2 76/2/2 83/2/2
f 76/1/2 77/1/2 84/1/2
f 83/2/2 76/2/2 84/2/2
f 77/2/2 78/2/2 85/2/2
f 84/1/2 77/1/2 85/1/2
f 85/2/2 78/2/2 86/2/2
f 79/2/2 80/2/2 87/2/2
f 87/2/2 80/2/2 88/2/2
f 89/3/2 90/3/2 93/3/2
f 93/3/2 90/3/2 94/3/2
f 91/3/2 92/3/2 95/3/2
f 95/3/2 92/3/2 96/3/2
f 99/2/3 98/2/3 97/2/3
f 100/2/3 98/2/3 99/2/3
f 103/2/3 102/2/3 101/2/3
f 104/2/3 102/2/3 103/2/3
f 107/3/3 106/3/3 105/3/3
f 108/3/3 106/3/3 107/3/3
f 109/3/3 107/3/3 105/3/3
f 110/3/3 106/3/3 108/3/3
f 111/3/3 109/3/3 105/3/3
f 111/3/3 110/3/3 109/3/3
f 112/3/3 106/3/3 110/3/3
f 112/3/3 110/3/3 111/3/3
f 115/3/3 114/3/3 113/3/3
f 116/3/3 114/3/3 115/3/3
f 117/3/3 115/3/3 113/3/3
f 118/3/3 114/3/3 116/3/3
f 119/3/3 117/3/3 113/3/3
f 119/3/3 118/3/3 117/3/3
f 120/3/3 114/3/3 118/3/3
f 120/3/3 118/3/3 119/3/3
f 123/3/3 122/3/3 121/3/3
f 124/3/3 122/3/3 123/3/3
f 125/3/3 123/3/3 121/3/3
f 126/3/3 122/3/3 124/3/3
f 127/3/3 125/3/3 121/3/3
f 127/3/3 126/3/3 125/3/3
f 128/3/3 122/3/3 126/3/3
f 128/3/3 126/3/3 127/3/3
f 131/3/3 130/3/3 129/3/3
f 132/3/3 130/3/3 131/3/3
f 133/3/3 131/3/3 129/3/3
f 134/3/3 130/3/3 132/3/3
f 135/3/3 133/3/3 129/3/3
f 135/3/3 134/3/3 133/3/3
f 136/3/3 130/3/3 134/3/3
f 136/3/3 134/3/3 135/3/3
f 137/3/4 138/3/4 139/3/4
f 139/3/4 138/3/4 140/3/4
f 137/3/4 139/3/4 141/3/4
f 140/3/4 138/3/4 142/3/4
f 137/3/4 141/3/4 143/3/4
f 141/3/4 142/3/4 143/3/4
f 142/3/4 138/3/4 144/3/4
f 143/3/4 142/3/4 144/3/4
f 145/3/4 146/3/4 147/3/4
f 147/3/4 146/3/4 148/3/4
f 145/3/4 147/3/4 149/3/4
f 148/3/4 146/3/4 150/3/4
f 145/3/4 149/3/4 151/3/4
f 149/3/4 150/3/4 151/3/4
f 150/3/4 146/3/4 152/3/4
f 151/3/4 150/3/4 152/3/4
f 153/3/4 154/3/4 155/3/4
f 155/3/4 154/3/4 156/3/4
f 153/3/4 155/3/4 157/3/4
f 156/3/4 154/3/4 158/3/4
f 153/3/4 157/3/4 159/3/4
f 157/3/4 158/3/4 159/3/4
f 158/3/4 154/3/4 160/3/4
f 159/3/4 158/3/4 160/3/4
f 161/3/4 162/3/4 163/3/4
f 163/3/4 162/3/4 164/3/4
f 161/3/4 163/3/4 165/3/4
f 164/3/4 162/3/4 166/3/4
f 161/3/4 165/3/4 167/3/4
f 165/3/4 166/3/4 167/3/4
f 166/3/4 162/3/4 168/3/4
f 167/3/4 166/3/4 168/3/4
f 169/2/4 170/2/4 171/2/4
f 171/2/4 170/2/4 172/2/4
f 173/2/4 174/2/4 175/2/4
f 175/2/4 174/2/4 176/2/4
f 181/3/5 178/3/5 177/3/5
f 182/3/5 178/3/5 181/3/5
f 183/3/5 180/3/5 179/3/5
f 184/3/5 180/3/5 183/3/5
f 189/3/5 186/3/5 185/3/5
f 190/3/5 186/3/5 189/3/5
f 191/3/5 188/3/5 187/3/5
f 192/3/5 188/3/5 191/3/5
f 197/2/5 194/2/5 193/2/5
f 198/2/5 194/2/5 197/2/5
f 199/2/5 196/2/5 195/2/5
f 200/2/5 196/2/5 199/2/5
f 205/2/5 202/2/5 201/2/5
f 206/2/5 202/2/5 205/2/5
f 207/2/5 204/2/5 203/2/5
f 208/2/5 204/2/5 207/2/5
f 209/1/5 206/1/5 205/1/5
f 210/1/5 206/1/5 209/1/5
f 211/1/5 208/1/5 207/1/5
f 212/1/5 208/1/5 211/1/5
f 213/2/5 210/2/5 209/2/5
f 214/2/5 210/2/5 213/2/5
f 215/2/5 212/2/5 211/2/5
f 216/2/5 212/2/5 215/2/5
f 221/2/5 218/2/5 217/2/5
f 222/2/5 218/2/5 221/2/5
f 223/2/5 220/2/5 219/2/5
f 224/2/5 220/2/5 223/2/5
f 225/2/6 226/2/6 229/2/6
f 229/2/6 226/2/6 230/2/6
f 227/2/6 228/2/6 231/2/6
f 231/2/6 228/2/6 232/2/6
f 233/2/6 234/2/6 237/2/6
f 237/2/6 234/2/6 238/2/6
f 235/2/6 236/2/6 239/2/6
f 239/2/6 236/2/6 240/2/6
f 237/1/6 238/1/6 241/1/6
f 241/1/6 238/1/6 242/1/6
f 239/1/6 240/1/6 243/1/6
f 243/1/6 240/1/6 244/1/6
f 241/2/6 242/2/6 245/2/6
f 245/2/6 242/2/6 246/2/6
f 243/2/6 244/2/6 247/2/6
f 247/2/6 244/2/6 248/2/6
f 249/2/6 250/2/6 253/2/6
f 253/2/6 250/2/6 254/2/6
f 251/2/6 252/2/6 255/2/6
f 255/2/6 252/2/6 256/2/6
f 257/3/6 258/3/6 261/3/6
f 261/3/6 258/3/6 262/3/6
f 259/3/6 260/3/6 263/3/6
f 263/3/6 260/3/6 264/3/6
f 265/3/6 266/3/6 269/3/6
f 269/3/6 266/3/6 270/3/6
f 267/3/6 268/3/6 271/3/6
f 271/3/6 268/3/6 272/3/6
