# MagicaVoxel @ Ephtracy

# group
o 

# material
mtllib Head_Cool.mtl
usemtl palette

# normals
vn -1 0 0
vn 1 0 0
vn 0 0 1
vn 0 0 -1
vn 0 -1 0
vn 0 1 0

# texcoords
vt 0.146484 0.5
vt 0.154297 0.5
vt 0.236328 0.5
vt 0.994141 0.5

# verts
v -0.3 1.1 0.2
v -0.3 1.1 -0.2
v -0.3 1.2 0.3
v -0.3 1.2 0.2
v -0.3 1.2 -0.1
v -0.3 1.2 -0.2
v -0.3 1.2 -0.3
v -0.3 1.3 0.2
v -0.3 1.3 -0.1
v -0.3 1.3 -0.2
v -0.3 1.4 0.3
v -0.3 1.4 0.2
v -0.3 1.4 -0.1
v -0.3 1.5 -0.2
v -0.3 1.5 -0.3
v -0.3 1.6 0.2
v -0.3 1.6 -0.2
v -0.2 1.1 -0.2
v -0.2 1.1 -0.3
v -0.2 1.2 -0.2
v -0.2 1.2 -0.3
v -0.2 1.5 -0.2
v -0.2 1.5 -0.3
v -0.2 1.6 -0.2
v -0.2 1.6 -0.3
v -0.1 1 0
v -0.1 1 -0.1
v -0.1 1.1 0
v -0.1 1.1 -0.1
v -0.1 1.3 -0.3
v -0.1 1.3 -0.4
v -0.1 1.4 -0.4
v -0.1 1.4 -0.5
v -0.1 1.6 0.2
v -0.1 1.6 -0.3
v -0.1 1.7 0.3
v -0.1 1.7 0.2
v -0.1 1.7 -0.4
v -0.1 1.7 -0.5
v -0.1 1.8 0.4
v -0.1 1.8 0.3
v -0.1 1.8 -0.2
v -0.1 1.8 -0.4
v -0.1 1.9 0.4
v -0.1 1.9 -0.2
v 0.1 1 0
v 0.1 1 -0.1
v 0.1 1.1 0
v 0.1 1.1 -0.1
v 0.1 1.3 -0.3
v 0.1 1.3 -0.4
v 0.1 1.4 -0.4
v 0.1 1.4 -0.5
v 0.1 1.6 0.2
v 0.1 1.6 -0.3
v 0.1 1.7 0.3
v 0.1 1.7 0.2
v 0.1 1.7 -0.4
v 0.1 1.7 -0.5
v 0.1 1.8 0.4
v 0.1 1.8 0.3
v 0.1 1.8 -0.2
v 0.1 1.8 -0.4
v 0.1 1.9 0.4
v 0.1 1.9 -0.2
v 0.2 1.1 -0.2
v 0.2 1.1 -0.3
v 0.2 1.2 -0.2
v 0.2 1.2 -0.3
v 0.2 1.5 -0.2
v 0.2 1.5 -0.3
v 0.2 1.6 -0.2
v 0.2 1.6 -0.3
v 0.3 1.1 0.2
v 0.3 1.1 -0.2
v 0.3 1.2 0.3
v 0.3 1.2 0.2
v 0.3 1.2 -0.1
v 0.3 1.2 -0.2
v 0.3 1.2 -0.3
v 0.3 1.3 0.2
v 0.3 1.3 -0.1
v 0.3 1.3 -0.2
v 0.3 1.4 0.3
v 0.3 1.4 0.2
v 0.3 1.4 -0.1
v 0.3 1.5 -0.2
v 0.3 1.5 -0.3
v 0.3 1.6 0.2
v 0.3 1.6 -0.2
v -0.1 1.8 0.4
v -0.1 1.9 0.4
v 0.1 1.8 0.4
v 0.1 1.9 0.4
v -0.3 1.2 0.3
v -0.3 1.4 0.3
v -0.1 1.2 0.3
v -0.1 1.3 0.3
v -0.1 1.7 0.3
v -0.1 1.8 0.3
v 0.1 1.2 0.3
v 0.1 1.3 0.3
v 0.1 1.7 0.3
v 0.1 1.8 0.3
v 0.3 1.2 0.3
v 0.3 1.4 0.3
v -0.3 1.1 0.2
v -0.3 1.2 0.2
v -0.3 1.4 0.2
v -0.3 1.6 0.2
v -0.1 1.2 0.2
v -0.1 1.6 0.2
v -0.1 1.7 0.2
v 0.1 1.2 0.2
v 0.1 1.6 0.2
v 0.1 1.7 0.2
v 0.3 1.1 0.2
v 0.3 1.2 0.2
v 0.3 1.4 0.2
v 0.3 1.6 0.2
v -0.1 1 0
v -0.1 1.1 0
v 0.1 1 0
v 0.1 1.1 0
v -0.1 1 -0.1
v -0.1 1.1 -0.1
v 0.1 1 -0.1
v 0.1 1.1 -0.1
v -0.3 1.1 -0.2
v -0.3 1.2 -0.2
v -0.3 1.5 -0.2
v -0.3 1.6 -0.2
v -0.2 1.1 -0.2
v -0.2 1.2 -0.2
v -0.2 1.5 -0.2
v -0.2 1.6 -0.2
v -0.1 1.8 -0.2
v -0.1 1.9 -0.2
v 0.1 1.8 -0.2
v 0.1 1.9 -0.2
v 0.2 1.1 -0.2
v 0.2 1.2 -0.2
v 0.2 1.5 -0.2
v 0.2 1.6 -0.2
v 0.3 1.1 -0.2
v 0.3 1.2 -0.2
v 0.3 1.5 -0.2
v 0.3 1.6 -0.2
v -0.3 1.2 -0.3
v -0.3 1.5 -0.3
v -0.2 1.1 -0.3
v -0.2 1.2 -0.3
v -0.2 1.5 -0.3
v -0.2 1.6 -0.3
v -0.1 1.3 -0.3
v -0.1 1.6 -0.3
v 0.1 1.3 -0.3
v 0.1 1.6 -0.3
v 0.2 1.1 -0.3
v 0.2 1.2 -0.3
v 0.2 1.5 -0.3
v 0.2 1.6 -0.3
v 0.3 1.2 -0.3
v 0.3 1.5 -0.3
v -0.1 1.3 -0.4
v -0.1 1.4 -0.4
v -0.1 1.7 -0.4
v -0.1 1.8 -0.4
v 0.1 1.3 -0.4
v 0.1 1.4 -0.4
v 0.1 1.7 -0.4
v 0.1 1.8 -0.4
v -0.1 1.4 -0.5
v -0.1 1.7 -0.5
v 0.1 1.4 -0.5
v 0.1 1.7 -0.5
v -0.1 1 0
v 0.1 1 0
v -0.1 1 -0.1
v 0.1 1 -0.1
v -0.3 1.1 0.2
v 0.3 1.1 0.2
v -0.1 1.1 0
v 0.1 1.1 0
v -0.1 1.1 -0.1
v 0.1 1.1 -0.1
v -0.3 1.1 -0.2
v -0.2 1.1 -0.2
v 0.2 1.1 -0.2
v 0.3 1.1 -0.2
v -0.2 1.1 -0.3
v 0.2 1.1 -0.3
v -0.3 1.2 0.3
v -0.1 1.2 0.3
v 0.1 1.2 0.3
v 0.3 1.2 0.3
v -0.3 1.2 0.2
v -0.1 1.2 0.2
v 0.1 1.2 0.2
v 0.3 1.2 0.2
v -0.3 1.2 -0.2
v -0.2 1.2 -0.2
v 0.2 1.2 -0.2
v 0.3 1.2 -0.2
v -0.3 1.2 -0.3
v -0.2 1.2 -0.3
v 0.2 1.2 -0.3
v 0.3 1.2 -0.3
v -0.1 1.3 -0.3
v 0.1 1.3 -0.3
v -0.1 1.3 -0.4
v 0.1 1.3 -0.4
v -0.1 1.4 -0.4
v 0.1 1.4 -0.4
v -0.1 1.4 -0.5
v 0.1 1.4 -0.5
v -0.1 1.7 0.3
v 0.1 1.7 0.3
v -0.1 1.7 0.2
v 0.1 1.7 0.2
v -0.1 1.8 0.4
v 0.1 1.8 0.4
v -0.1 1.8 0.3
v 0.1 1.8 0.3
v -0.3 1.4 0.3
v 0.3 1.4 0.3
v -0.3 1.4 0.2
v 0.3 1.4 0.2
v -0.3 1.5 -0.2
v -0.2 1.5 -0.2
v 0.2 1.5 -0.2
v 0.3 1.5 -0.2
v -0.3 1.5 -0.3
v -0.2 1.5 -0.3
v 0.2 1.5 -0.3
v 0.3 1.5 -0.3
v -0.3 1.6 0.2
v -0.1 1.6 0.2
v 0.1 1.6 0.2
v 0.3 1.6 0.2
v -0.3 1.6 -0.2
v -0.2 1.6 -0.2
v 0.2 1.6 -0.2
v 0.3 1.6 -0.2
v -0.2 1.6 -0.3
v -0.1 1.6 -0.3
v 0.1 1.6 -0.3
v 0.2 1.6 -0.3
v -0.1 1.7 -0.4
v 0.1 1.7 -0.4
v -0.1 1.7 -0.5
v 0.1 1.7 -0.5
v -0.1 1.8 -0.2
v 0.1 1.8 -0.2
v -0.1 1.8 -0.4
v 0.1 1.8 -0.4
v -0.1 1.9 0.4
v 0.1 1.9 0.4
v -0.1 1.9 -0.2
v 0.1 1.9 -0.2

# faces
f 4/3/1 2/3/1 1/3/1
f 5/3/1 2/3/1 4/3/1
f 6/3/1 2/3/1 5/3/1
f 8/4/1 4/4/1 3/4/1
f 8/3/1 5/3/1 4/3/1
f 9/4/1 6/4/1 5/4/1
f 9/3/1 5/3/1 8/3/1
f 10/3/1 7/3/1 6/3/1
f 10/4/1 6/4/1 9/4/1
f 11/4/1 9/4/1 8/4/1
f 11/4/1 8/4/1 3/4/1
f 12/4/1 9/4/1 11/4/1
f 13/3/1 10/3/1 9/3/1
f 13/4/1 9/4/1 12/4/1
f 14/3/1 7/3/1 10/3/1
f 14/3/1 10/3/1 13/3/1
f 14/3/1 13/3/1 12/3/1
f 15/3/1 7/3/1 14/3/1
f 16/3/1 14/3/1 12/3/1
f 17/3/1 14/3/1 16/3/1
f 20/3/1 19/3/1 18/3/1
f 21/3/1 19/3/1 20/3/1
f 24/3/1 23/3/1 22/3/1
f 25/3/1 23/3/1 24/3/1
f 28/3/1 27/3/1 26/3/1
f 29/3/1 27/3/1 28/3/1
f 32/1/1 31/1/1 30/1/1
f 35/1/1 32/1/1 30/1/1
f 35/1/1 33/1/1 32/1/1
f 37/1/1 35/1/1 34/1/1
f 38/1/1 33/1/1 35/1/1
f 38/1/1 35/1/1 37/1/1
f 39/1/1 33/1/1 38/1/1
f 41/1/1 37/1/1 36/1/1
f 41/1/1 38/1/1 37/1/1
f 42/1/1 38/1/1 41/1/1
f 43/1/1 38/1/1 42/1/1
f 44/1/1 41/1/1 40/1/1
f 44/1/1 42/1/1 41/1/1
f 45/1/1 42/1/1 44/1/1
f 46/3/2 47/3/2 48/3/2
f 48/3/2 47/3/2 49/3/2
f 50/1/2 51/1/2 52/1/2
f 50/1/2 52/1/2 55/1/2
f 52/1/2 53/1/2 55/1/2
f 54/1/2 55/1/2 57/1/2
f 55/1/2 53/1/2 58/1/2
f 57/1/2 55/1/2 58/1/2
f 58/1/2 53/1/2 59/1/2
f 56/1/2 57/1/2 61/1/2
f 57/1/2 58/1/2 61/1/2
f 61/1/2 58/1/2 62/1/2
f 62/1/2 58/1/2 63/1/2
f 60/1/2 61/1/2 64/1/2
f 61/1/2 62/1/2 64/1/2
f 64/1/2 62/1/2 65/1/2
f 66/3/2 67/3/2 68/3/2
f 68/3/2 67/3/2 69/3/2
f 70/3/2 71/3/2 72/3/2
f 72/3/2 71/3/2 73/3/2
f 74/3/2 75/3/2 77/3/2
f 77/3/2 75/3/2 78/3/2
f 78/3/2 75/3/2 79/3/2
f 76/4/2 77/4/2 81/4/2
f 77/3/2 78/3/2 81/3/2
f 78/4/2 79/4/2 82/4/2
f 81/3/2 78/3/2 82/3/2
f 79/3/2 80/3/2 83/3/2
f 82/4/2 79/4/2 83/4/2
f 81/4/2 82/4/2 84/4/2
f 76/4/2 81/4/2 84/4/2
f 84/4/2 82/4/2 85/4/2
f 82/3/2 83/3/2 86/3/2
f 85/4/2 82/4/2 86/4/2
f 83/3/2 80/3/2 87/3/2
f 86/3/2 83/3/2 87/3/2
f 85/3/2 86/3/2 87/3/2
f 87/3/2 80/3/2 88/3/2
f 85/3/2 87/3/2 89/3/2
f 89/3/2 87/3/2 90/3/2
f 93/1/3 92/1/3 91/1/3
f 94/1/3 92/1/3 93/1/3
f 97/4/3 96/4/3 95/4/3
f 98/4/3 96/4/3 97/4/3
f 101/2/3 98/2/3 97/2/3
f 102/4/3 96/4/3 98/4/3
f 102/2/3 98/2/3 101/2/3
f 103/1/3 100/1/3 99/1/3
f 104/1/3 100/1/3 103/1/3
f 105/4/3 102/4/3 101/4/3
f 106/4/3 96/4/3 102/4/3
f 106/4/3 102/4/3 105/4/3
f 111/3/3 108/3/3 107/3/3
f 112/3/3 110/3/3 109/3/3
f 114/3/3 111/3/3 107/3/3
f 115/1/3 113/1/3 112/1/3
f 115/3/3 112/3/3 109/3/3
f 116/1/3 113/1/3 115/1/3
f 117/3/3 114/3/3 107/3/3
f 118/3/3 114/3/3 117/3/3
f 119/3/3 115/3/3 109/3/3
f 120/3/3 115/3/3 119/3/3
f 123/3/3 122/3/3 121/3/3
f 124/3/3 122/3/3 123/3/3
f 125/3/4 126/3/4 127/3/4
f 127/3/4 126/3/4 128/3/4
f 129/3/4 130/3/4 133/3/4
f 133/3/4 130/3/4 134/3/4
f 131/3/4 132/3/4 135/3/4
f 135/3/4 132/3/4 136/3/4
f 137/1/4 138/1/4 139/1/4
f 139/1/4 138/1/4 140/1/4
f 141/3/4 142/3/4 145/3/4
f 145/3/4 142/3/4 146/3/4
f 143/3/4 144/3/4 147/3/4
f 147/3/4 144/3/4 148/3/4
f 149/3/4 150/3/4 152/3/4
f 152/3/4 150/3/4 153/3/4
f 151/3/4 152/3/4 155/3/4
f 153/3/4 154/3/4 155/3/4
f 152/3/4 153/3/4 155/3/4
f 155/3/4 154/3/4 156/3/4
f 151/3/4 155/3/4 157/3/4
f 151/3/4 157/3/4 159/3/4
f 157/3/4 158/3/4 159/3/4
f 159/3/4 158/3/4 160/3/4
f 160/3/4 158/3/4 161/3/4
f 161/3/4 158/3/4 162/3/4
f 160/3/4 161/3/4 163/3/4
f 163/3/4 161/3/4 164/3/4
f 165/1/4 166/1/4 169/1/4
f 169/1/4 166/1/4 170/1/4
f 167/1/4 168/1/4 171/1/4
f 171/1/4 168/1/4 172/1/4
f 173/1/4 174/1/4 175/1/4
f 175/1/4 174/1/4 176/1/4
f 179/3/5 178/3/5 177/3/5
f 180/3/5 178/3/5 179/3/5
f 183/3/5 182/3/5 181/3/5
f 184/3/5 182/3/5 183/3/5
f 185/3/5 183/3/5 181/3/5
f 186/3/5 182/3/5 184/3/5
f 187/3/5 185/3/5 181/3/5
f 187/3/5 186/3/5 185/3/5
f 188/3/5 186/3/5 187/3/5
f 189/3/5 182/3/5 186/3/5
f 189/3/5 186/3/5 188/3/5
f 190/3/5 182/3/5 189/3/5
f 191/3/5 189/3/5 188/3/5
f 192/3/5 189/3/5 191/3/5
f 197/4/5 194/4/5 193/4/5
f 198/2/5 195/2/5 194/2/5
f 198/4/5 194/4/5 197/4/5
f 199/4/5 196/4/5 195/4/5
f 199/2/5 195/2/5 198/2/5
f 200/4/5 196/4/5 199/4/5
f 205/3/5 202/3/5 201/3/5
f 206/3/5 202/3/5 205/3/5
f 207/3/5 204/3/5 203/3/5
f 208/3/5 204/3/5 207/3/5
f 211/1/5 210/1/5 209/1/5
f 212/1/5 210/1/5 211/1/5
f 215/1/5 214/1/5 213/1/5
f 216/1/5 214/1/5 215/1/5
f 219/1/5 218/1/5 217/1/5
f 220/1/5 218/1/5 219/1/5
f 223/1/5 222/1/5 221/1/5
f 224/1/5 222/1/5 223/1/5
f 225/4/6 226/4/6 227/4/6
f 227/4/6 226/4/6 228/4/6
f 229/3/6 230/3/6 233/3/6
f 233/3/6 230/3/6 234/3/6
f 231/3/6 232/3/6 235/3/6
f 235/3/6 232/3/6 236/3/6
f 237/3/6 238/3/6 241/3/6
f 241/3/6 238/3/6 242/3/6
f 239/3/6 240/3/6 243/3/6
f 243/3/6 240/3/6 244/3/6
f 242/3/6 238/3/6 245/3/6
f 245/3/6 238/3/6 246/3/6
f 239/3/6 243/3/6 247/3/6
f 247/3/6 243/3/6 248/3/6
f 249/1/6 250/1/6 251/1/6
f 251/1/6 250/1/6 252/1/6
f 253/1/6 254/1/6 255/1/6
f 255/1/6 254/1/6 256/1/6
f 257/1/6 258/1/6 259/1/6
f 259/1/6 258/1/6 260/1/6
