# MagicaVoxel @ Ephtracy

# group
o 

# material
mtllib Head_Cool.mtl
usemtl palette

# normals
vn -1 0 0
vn 1 0 0
vn 0 0 1
vn 0 0 -1
vn 0 -1 0
vn 0 1 0

# texcoords
vt 0.154297 0.5
vt 0.236328 0.5
vt 0.994141 0.5

# verts
v -0.3 1.1 0.2
v -0.3 1.1 -0.2
v -0.3 1.2 0.3
v -0.3 1.2 0.2
v -0.3 1.2 -0.1
v -0.3 1.2 -0.2
v -0.3 1.2 -0.3
v -0.3 1.3 0.2
v -0.3 1.3 -0.1
v -0.3 1.3 -0.2
v -0.3 1.4 0.3
v -0.3 1.4 0.2
v -0.3 1.4 -0.1
v -0.3 1.5 -0.2
v -0.3 1.5 -0.3
v -0.3 1.6 0.2
v -0.3 1.6 -0.2
v -0.2 1.1 -0.2
v -0.2 1.1 -0.3
v -0.2 1.2 -0.2
v -0.2 1.2 -0.3
v -0.2 1.5 -0.2
v -0.2 1.5 -0.3
v -0.2 1.6 -0.2
v -0.2 1.6 -0.3
v -0.1 1 -2.98023e-008
v -0.1 1 -0.1
v -0.1 1.1 -2.98023e-008
v -0.1 1.1 -0.1
v 0.1 1 -2.98023e-008
v 0.1 1 -0.1
v 0.1 1.1 -2.98023e-008
v 0.1 1.1 -0.1
v 0.2 1.1 -0.2
v 0.2 1.1 -0.3
v 0.2 1.2 -0.2
v 0.2 1.2 -0.3
v 0.2 1.5 -0.2
v 0.2 1.5 -0.3
v 0.2 1.6 -0.2
v 0.2 1.6 -0.3
v 0.3 1.1 0.2
v 0.3 1.1 -0.2
v 0.3 1.2 0.3
v 0.3 1.2 0.2
v 0.3 1.2 -0.1
v 0.3 1.2 -0.2
v 0.3 1.2 -0.3
v 0.3 1.3 0.2
v 0.3 1.3 -0.1
v 0.3 1.3 -0.2
v 0.3 1.4 0.3
v 0.3 1.4 0.2
v 0.3 1.4 -0.1
v 0.3 1.5 -0.2
v 0.3 1.5 -0.3
v 0.3 1.6 0.2
v 0.3 1.6 -0.2
v -0.3 1.2 0.3
v -0.3 1.4 0.3
v -0.1 1.2 0.3
v -0.1 1.3 0.3
v 0.1 1.2 0.3
v 0.1 1.3 0.3
v 0.3 1.2 0.3
v 0.3 1.4 0.3
v -0.3 1.1 0.2
v -0.3 1.2 0.2
v -0.3 1.4 0.2
v -0.3 1.6 0.2
v -0.1 1.2 0.2
v 0.1 1.2 0.2
v 0.3 1.1 0.2
v 0.3 1.2 0.2
v 0.3 1.4 0.2
v 0.3 1.6 0.2
v -0.1 1 -2.98023e-008
v -0.1 1.1 -2.98023e-008
v 0.1 1 -2.98023e-008
v 0.1 1.1 -2.98023e-008
v -0.1 1 -0.1
v -0.1 1.1 -0.1
v 0.1 1 -0.1
v 0.1 1.1 -0.1
v -0.3 1.1 -0.2
v -0.3 1.2 -0.2
v -0.3 1.5 -0.2
v -0.3 1.6 -0.2
v -0.2 1.1 -0.2
v -0.2 1.2 -0.2
v -0.2 1.5 -0.2
v -0.2 1.6 -0.2
v 0.2 1.1 -0.2
v 0.2 1.2 -0.2
v 0.2 1.5 -0.2
v 0.2 1.6 -0.2
v 0.3 1.1 -0.2
v 0.3 1.2 -0.2
v 0.3 1.5 -0.2
v 0.3 1.6 -0.2
v -0.3 1.2 -0.3
v -0.3 1.5 -0.3
v -0.2 1.1 -0.3
v -0.2 1.2 -0.3
v -0.2 1.5 -0.3
v -0.2 1.6 -0.3
v 0.2 1.1 -0.3
v 0.2 1.2 -0.3
v 0.2 1.5 -0.3
v 0.2 1.6 -0.3
v 0.3 1.2 -0.3
v 0.3 1.5 -0.3
v -0.1 1 -2.98023e-008
v 0.1 1 -2.98023e-008
v -0.1 1 -0.1
v 0.1 1 -0.1
v -0.3 1.1 0.2
v 0.3 1.1 0.2
v -0.1 1.1 -2.98023e-008
v 0.1 1.1 -2.98023e-008
v -0.1 1.1 -0.1
v 0.1 1.1 -0.1
v -0.3 1.1 -0.2
v -0.2 1.1 -0.2
v 0.2 1.1 -0.2
v 0.3 1.1 -0.2
v -0.2 1.1 -0.3
v 0.2 1.1 -0.3
v -0.3 1.2 0.3
v -0.1 1.2 0.3
v 0.1 1.2 0.3
v 0.3 1.2 0.3
v -0.3 1.2 0.2
v -0.1 1.2 0.2
v 0.1 1.2 0.2
v 0.3 1.2 0.2
v -0.3 1.2 -0.2
v -0.2 1.2 -0.2
v 0.2 1.2 -0.2
v 0.3 1.2 -0.2
v -0.3 1.2 -0.3
v -0.2 1.2 -0.3
v 0.2 1.2 -0.3
v 0.3 1.2 -0.3
v -0.3 1.4 0.3
v 0.3 1.4 0.3
v -0.3 1.4 0.2
v 0.3 1.4 0.2
v -0.3 1.5 -0.2
v -0.2 1.5 -0.2
v 0.2 1.5 -0.2
v 0.3 1.5 -0.2
v -0.3 1.5 -0.3
v -0.2 1.5 -0.3
v 0.2 1.5 -0.3
v 0.3 1.5 -0.3
v -0.3 1.6 0.2
v 0.3 1.6 0.2
v -0.3 1.6 -0.2
v -0.2 1.6 -0.2
v 0.2 1.6 -0.2
v 0.3 1.6 -0.2
v -0.2 1.6 -0.3
v 0.2 1.6 -0.3

# faces
f 4/2/1 2/2/1 1/2/1
f 5/2/1 2/2/1 4/2/1
f 6/2/1 2/2/1 5/2/1
f 8/3/1 4/3/1 3/3/1
f 8/2/1 5/2/1 4/2/1
f 9/3/1 6/3/1 5/3/1
f 9/2/1 5/2/1 8/2/1
f 10/2/1 7/2/1 6/2/1
f 10/3/1 6/3/1 9/3/1
f 11/3/1 9/3/1 8/3/1
f 11/3/1 8/3/1 3/3/1
f 12/3/1 9/3/1 11/3/1
f 13/2/1 10/2/1 9/2/1
f 13/3/1 9/3/1 12/3/1
f 14/2/1 7/2/1 10/2/1
f 14/2/1 10/2/1 13/2/1
f 14/2/1 13/2/1 12/2/1
f 15/2/1 7/2/1 14/2/1
f 16/2/1 14/2/1 12/2/1
f 17/2/1 14/2/1 16/2/1
f 20/2/1 19/2/1 18/2/1
f 21/2/1 19/2/1 20/2/1
f 24/2/1 23/2/1 22/2/1
f 25/2/1 23/2/1 24/2/1
f 28/2/1 27/2/1 26/2/1
f 29/2/1 27/2/1 28/2/1
f 30/2/2 31/2/2 32/2/2
f 32/2/2 31/2/2 33/2/2
f 34/2/2 35/2/2 36/2/2
f 36/2/2 35/2/2 37/2/2
f 38/2/2 39/2/2 40/2/2
f 40/2/2 39/2/2 41/2/2
f 42/2/2 43/2/2 45/2/2
f 45/2/2 43/2/2 46/2/2
f 46/2/2 43/2/2 47/2/2
f 44/3/2 45/3/2 49/3/2
f 45/2/2 46/2/2 49/2/2
f 46/3/2 47/3/2 50/3/2
f 49/2/2 46/2/2 50/2/2
f 47/2/2 48/2/2 51/2/2
f 50/3/2 47/3/2 51/3/2
f 49/3/2 50/3/2 52/3/2
f 44/3/2 49/3/2 52/3/2
f 52/3/2 50/3/2 53/3/2
f 50/2/2 51/2/2 54/2/2
f 53/3/2 50/3/2 54/3/2
f 51/2/2 48/2/2 55/2/2
f 54/2/2 51/2/2 55/2/2
f 53/2/2 54/2/2 55/2/2
f 55/2/2 48/2/2 56/2/2
f 53/2/2 55/2/2 57/2/2
f 57/2/2 55/2/2 58/2/2
f 61/3/3 60/3/3 59/3/3
f 62/3/3 60/3/3 61/3/3
f 63/1/3 62/1/3 61/1/3
f 64/3/3 60/3/3 62/3/3
f 64/1/3 62/1/3 63/1/3
f 65/3/3 64/3/3 63/3/3
f 66/3/3 60/3/3 64/3/3
f 66/3/3 64/3/3 65/3/3
f 71/2/3 68/2/3 67/2/3
f 72/2/3 71/2/3 67/2/3
f 73/2/3 72/2/3 67/2/3
f 74/2/3 72/2/3 73/2/3
f 75/2/3 70/2/3 69/2/3
f 76/2/3 70/2/3 75/2/3
f 79/2/3 78/2/3 77/2/3
f 80/2/3 78/2/3 79/2/3
f 81/2/4 82/2/4 83/2/4
f 83/2/4 82/2/4 84/2/4
f 85/2/4 86/2/4 89/2/4
f 89/2/4 86/2/4 90/2/4
f 87/2/4 88/2/4 91/2/4
f 91/2/4 88/2/4 92/2/4
f 93/2/4 94/2/4 97/2/4
f 97/2/4 94/2/4 98/2/4
f 95/2/4 96/2/4 99/2/4
f 99/2/4 96/2/4 100/2/4
f 101/2/4 102/2/4 104/2/4
f 104/2/4 102/2/4 105/2/4
f 103/2/4 104/2/4 107/2/4
f 105/2/4 106/2/4 107/2/4
f 104/2/4 105/2/4 107/2/4
f 107/2/4 106/2/4 108/2/4
f 108/2/4 106/2/4 109/2/4
f 109/2/4 106/2/4 110/2/4
f 108/2/4 109/2/4 111/2/4
f 111/2/4 109/2/4 112/2/4
f 115/2/5 114/2/5 113/2/5
f 116/2/5 114/2/5 115/2/5
f 119/2/5 118/2/5 117/2/5
f 120/2/5 118/2/5 119/2/5
f 121/2/5 119/2/5 117/2/5
f 122/2/5 118/2/5 120/2/5
f 123/2/5 121/2/5 117/2/5
f 123/2/5 122/2/5 121/2/5
f 124/2/5 122/2/5 123/2/5
f 125/2/5 118/2/5 122/2/5
f 125/2/5 122/2/5 124/2/5
f 126/2/5 118/2/5 125/2/5
f 127/2/5 125/2/5 124/2/5
f 128/2/5 125/2/5 127/2/5
f 133/3/5 130/3/5 129/3/5
f 134/1/5 131/1/5 130/1/5
f 134/3/5 130/3/5 133/3/5
f 135/3/5 132/3/5 131/3/5
f 135/1/5 131/1/5 134/1/5
f 136/3/5 132/3/5 135/3/5
f 141/2/5 138/2/5 137/2/5
f 142/2/5 138/2/5 141/2/5
f 143/2/5 140/2/5 139/2/5
f 144/2/5 140/2/5 143/2/5
f 145/3/6 146/3/6 147/3/6
f 147/3/6 146/3/6 148/3/6
f 149/2/6 150/2/6 153/2/6
f 153/2/6 150/2/6 154/2/6
f 151/2/6 152/2/6 155/2/6
f 155/2/6 152/2/6 156/2/6
f 157/2/6 158/2/6 159/2/6
f 159/2/6 158/2/6 160/2/6
f 160/2/6 158/2/6 161/2/6
f 161/2/6 158/2/6 162/2/6
f 160/2/6 161/2/6 163/2/6
f 163/2/6 161/2/6 164/2/6
