# MagicaVoxel @ Ephtracy

# group
o 

# material
mtllib Man_Strong_Head.mtl
usemtl palette

# normals
vn -1 0 0
vn 1 0 0
vn 0 0 1
vn 0 0 -1
vn 0 -1 0
vn 0 1 0

# texcoords
vt 0.154297 0.5
vt 0.224609 0.5
vt 0.236328 0.5
vt 0.994141 0.5

# verts
v -0.4 1.2 0.3
v -0.4 1.2 0.2
v -0.4 1.3 0.3
v -0.4 1.3 0.2
v -0.3 1.1 0.3
v -0.3 1.1 0.2
v -0.3 1.1 -0.2
v -0.3 1.2 0.3
v -0.3 1.2 0.2
v -0.3 1.2 -0.2
v -0.3 1.2 -0.3
v -0.3 1.3 0.2
v -0.3 1.5 -0.2
v -0.3 1.5 -0.3
v -0.3 1.6 0.2
v -0.3 1.6 -0.2
v -0.2 1.1 -0.2
v -0.2 1.1 -0.3
v -0.2 1.2 -0.2
v -0.2 1.2 -0.3
v -0.2 1.5 -0.2
v -0.2 1.5 -0.3
v -0.2 1.6 -0.2
v -0.2 1.6 -0.3
v -0.1 1 -2.98023e-008
v -0.1 1 -0.1
v -0.1 1.1 -2.98023e-008
v -0.1 1.1 -0.1
v -0.1 1.2 0.3
v -0.1 1.2 0.2
v -0.1 1.3 0.3
v -0.1 1.3 0.2
v 0.1 1.1 0.3
v 0.1 1.1 0.2
v 0.1 1.2 0.3
v 0.1 1.2 0.2
v 0.3 1.2 0.3
v 0.3 1.2 0.2
v 0.3 1.3 0.3
v 0.3 1.3 0.2
v -0.3 1.2 0.3
v -0.3 1.2 0.2
v -0.3 1.3 0.3
v -0.3 1.3 0.2
v -0.1 1.1 0.3
v -0.1 1.1 0.2
v -0.1 1.2 0.3
v -0.1 1.2 0.2
v 0.1 1 -2.98023e-008
v 0.1 1 -0.1
v 0.1 1.1 -2.98023e-008
v 0.1 1.1 -0.1
v 0.1 1.2 0.3
v 0.1 1.2 0.2
v 0.1 1.3 0.3
v 0.1 1.3 0.2
v 0.2 1.1 -0.2
v 0.2 1.1 -0.3
v 0.2 1.2 -0.2
v 0.2 1.2 -0.3
v 0.2 1.5 -0.2
v 0.2 1.5 -0.3
v 0.2 1.6 -0.2
v 0.2 1.6 -0.3
v 0.3 1.1 0.3
v 0.3 1.1 0.2
v 0.3 1.1 -0.2
v 0.3 1.2 0.3
v 0.3 1.2 0.2
v 0.3 1.2 -0.2
v 0.3 1.2 -0.3
v 0.3 1.3 0.2
v 0.3 1.5 -0.2
v 0.3 1.5 -0.3
v 0.3 1.6 0.2
v 0.3 1.6 -0.2
v 0.4 1.2 0.3
v 0.4 1.2 0.2
v 0.4 1.3 0.3
v 0.4 1.3 0.2
v -0.4 1.2 0.3
v -0.4 1.3 0.3
v -0.3 1.1 0.3
v -0.3 1.2 0.3
v -0.3 1.3 0.3
v -0.1 1.1 0.3
v -0.1 1.2 0.3
v -0.1 1.3 0.3
v 0.1 1.1 0.3
v 0.1 1.2 0.3
v 0.1 1.3 0.3
v 0.3 1.1 0.3
v 0.3 1.2 0.3
v 0.3 1.3 0.3
v 0.4 1.2 0.3
v 0.4 1.3 0.3
v -0.3 1.2 0.2
v -0.3 1.3 0.2
v -0.3 1.6 0.2
v -0.2 1.3 0.2
v -0.2 1.4 0.2
v -0.1 1.1 0.2
v -0.1 1.2 0.2
v -0.1 1.3 0.2
v -0.1 1.4 0.2
v 0.1 1.1 0.2
v 0.1 1.2 0.2
v 0.1 1.3 0.2
v 0.1 1.4 0.2
v 0.2 1.3 0.2
v 0.2 1.4 0.2
v 0.3 1.2 0.2
v 0.3 1.3 0.2
v 0.3 1.6 0.2
v -0.1 1 -2.98023e-008
v -0.1 1.1 -2.98023e-008
v 0.1 1 -2.98023e-008
v 0.1 1.1 -2.98023e-008
v -0.4 1.2 0.2
v -0.4 1.3 0.2
v -0.3 1.2 0.2
v -0.3 1.3 0.2
v 0.3 1.2 0.2
v 0.3 1.3 0.2
v 0.4 1.2 0.2
v 0.4 1.3 0.2
v -0.1 1 -0.1
v -0.1 1.1 -0.1
v 0.1 1 -0.1
v 0.1 1.1 -0.1
v -0.3 1.1 -0.2
v -0.3 1.2 -0.2
v -0.3 1.5 -0.2
v -0.3 1.6 -0.2
v -0.2 1.1 -0.2
v -0.2 1.2 -0.2
v -0.2 1.5 -0.2
v -0.2 1.6 -0.2
v 0.2 1.1 -0.2
v 0.2 1.2 -0.2
v 0.2 1.5 -0.2
v 0.2 1.6 -0.2
v 0.3 1.1 -0.2
v 0.3 1.2 -0.2
v 0.3 1.5 -0.2
v 0.3 1.6 -0.2
v -0.3 1.2 -0.3
v -0.3 1.5 -0.3
v -0.2 1.1 -0.3
v -0.2 1.2 -0.3
v -0.2 1.5 -0.3
v -0.2 1.6 -0.3
v 0.2 1.1 -0.3
v 0.2 1.2 -0.3
v 0.2 1.5 -0.3
v 0.2 1.6 -0.3
v 0.3 1.2 -0.3
v 0.3 1.5 -0.3
v -0.1 1 -2.98023e-008
v 0.1 1 -2.98023e-008
v -0.1 1 -0.1
v 0.1 1 -0.1
v -0.3 1.1 0.3
v -0.1 1.1 0.3
v 0.1 1.1 0.3
v 0.3 1.1 0.3
v -0.3 1.1 0.2
v -0.1 1.1 0.2
v 0.1 1.1 0.2
v 0.3 1.1 0.2
v -0.1 1.1 -2.98023e-008
v 0.1 1.1 -2.98023e-008
v -0.1 1.1 -0.1
v 0.1 1.1 -0.1
v -0.3 1.1 -0.2
v -0.2 1.1 -0.2
v 0.2 1.1 -0.2
v 0.3 1.1 -0.2
v -0.2 1.1 -0.3
v 0.2 1.1 -0.3
v -0.4 1.2 0.3
v -0.3 1.2 0.3
v -0.1 1.2 0.3
v 0.1 1.2 0.3
v 0.3 1.2 0.3
v 0.4 1.2 0.3
v -0.4 1.2 0.2
v -0.3 1.2 0.2
v -0.1 1.2 0.2
v 0.1 1.2 0.2
v 0.3 1.2 0.2
v 0.4 1.2 0.2
v -0.3 1.2 -0.2
v -0.2 1.2 -0.2
v 0.2 1.2 -0.2
v 0.3 1.2 -0.2
v -0.3 1.2 -0.3
v -0.2 1.2 -0.3
v 0.2 1.2 -0.3
v 0.3 1.2 -0.3
v -0.3 1.2 0.3
v -0.1 1.2 0.3
v 0.1 1.2 0.3
v 0.3 1.2 0.3
v -0.3 1.2 0.2
v -0.1 1.2 0.2
v 0.1 1.2 0.2
v 0.3 1.2 0.2
v -0.4 1.3 0.3
v -0.3 1.3 0.3
v -0.1 1.3 0.3
v 0.1 1.3 0.3
v 0.3 1.3 0.3
v 0.4 1.3 0.3
v -0.4 1.3 0.2
v -0.3 1.3 0.2
v -0.1 1.3 0.2
v 0.1 1.3 0.2
v 0.3 1.3 0.2
v 0.4 1.3 0.2
v -0.3 1.5 -0.2
v -0.2 1.5 -0.2
v 0.2 1.5 -0.2
v 0.3 1.5 -0.2
v -0.3 1.5 -0.3
v -0.2 1.5 -0.3
v 0.2 1.5 -0.3
v 0.3 1.5 -0.3
v -0.3 1.6 0.2
v 0.3 1.6 0.2
v -0.3 1.6 -0.2
v -0.2 1.6 -0.2
v 0.2 1.6 -0.2
v 0.3 1.6 -0.2
v -0.2 1.6 -0.3
v 0.2 1.6 -0.3

# faces
f 3/2/1 2/2/1 1/2/1
f 4/2/1 2/2/1 3/2/1
f 8/2/1 6/2/1 5/2/1
f 9/3/1 7/3/1 6/3/1
f 9/2/1 6/2/1 8/2/1
f 10/3/1 7/3/1 9/3/1
f 12/3/1 11/3/1 10/3/1
f 12/3/1 10/3/1 9/3/1
f 13/3/1 11/3/1 12/3/1
f 14/3/1 11/3/1 13/3/1
f 15/3/1 13/3/1 12/3/1
f 16/3/1 13/3/1 15/3/1
f 19/3/1 18/3/1 17/3/1
f 20/3/1 18/3/1 19/3/1
f 23/3/1 22/3/1 21/3/1
f 24/3/1 22/3/1 23/3/1
f 27/3/1 26/3/1 25/3/1
f 28/3/1 26/3/1 27/3/1
f 31/1/1 30/1/1 29/1/1
f 32/1/1 30/1/1 31/1/1
f 35/2/1 34/2/1 33/2/1
f 36/2/1 34/2/1 35/2/1
f 39/2/1 38/2/1 37/2/1
f 40/2/1 38/2/1 39/2/1
f 41/2/2 42/2/2 43/2/2
f 43/2/2 42/2/2 44/2/2
f 45/2/2 46/2/2 47/2/2
f 47/2/2 46/2/2 48/2/2
f 49/3/2 50/3/2 51/3/2
f 51/3/2 50/3/2 52/3/2
f 53/1/2 54/1/2 55/1/2
f 55/1/2 54/1/2 56/1/2
f 57/3/2 58/3/2 59/3/2
f 59/3/2 58/3/2 60/3/2
f 61/3/2 62/3/2 63/3/2
f 63/3/2 62/3/2 64/3/2
f 65/2/2 66/2/2 68/2/2
f 66/3/2 67/3/2 69/3/2
f 68/2/2 66/2/2 69/2/2
f 69/3/2 67/3/2 70/3/2
f 70/3/2 71/3/2 72/3/2
f 69/3/2 70/3/2 72/3/2
f 72/3/2 71/3/2 73/3/2
f 73/3/2 71/3/2 74/3/2
f 72/3/2 73/3/2 75/3/2
f 75/3/2 73/3/2 76/3/2
f 77/2/2 78/2/2 79/2/2
f 79/2/2 78/2/2 80/2/2
f 84/2/3 82/2/3 81/2/3
f 85/2/3 82/2/3 84/2/3
f 86/2/3 84/2/3 83/2/3
f 87/2/3 84/2/3 86/2/3
f 90/1/3 88/1/3 87/1/3
f 91/1/3 88/1/3 90/1/3
f 92/2/3 90/2/3 89/2/3
f 93/2/3 90/2/3 92/2/3
f 95/2/3 94/2/3 93/2/3
f 96/2/3 94/2/3 95/2/3
f 100/3/3 98/3/3 97/3/3
f 100/3/3 99/3/3 98/3/3
f 101/3/3 99/3/3 100/3/3
f 103/3/3 100/3/3 97/3/3
f 104/4/3 101/4/3 100/4/3
f 104/3/3 100/3/3 103/3/3
f 105/3/3 99/3/3 101/3/3
f 105/4/3 101/4/3 104/4/3
f 106/3/3 103/3/3 102/3/3
f 107/3/3 103/3/3 106/3/3
f 108/3/3 105/3/3 104/3/3
f 109/3/3 99/3/3 105/3/3
f 109/3/3 105/3/3 108/3/3
f 110/3/3 108/3/3 107/3/3
f 110/4/3 109/4/3 108/4/3
f 111/3/3 99/3/3 109/3/3
f 111/4/3 109/4/3 110/4/3
f 112/3/3 110/3/3 107/3/3
f 112/3/3 111/3/3 110/3/3
f 113/3/3 111/3/3 112/3/3
f 114/3/3 99/3/3 111/3/3
f 114/3/3 111/3/3 113/3/3
f 117/3/3 116/3/3 115/3/3
f 118/3/3 116/3/3 117/3/3
f 119/2/4 120/2/4 121/2/4
f 121/2/4 120/2/4 122/2/4
f 123/2/4 124/2/4 125/2/4
f 125/2/4 124/2/4 126/2/4
f 127/3/4 128/3/4 129/3/4
f 129/3/4 128/3/4 130/3/4
f 131/3/4 132/3/4 135/3/4
f 135/3/4 132/3/4 136/3/4
f 133/3/4 134/3/4 137/3/4
f 137/3/4 134/3/4 138/3/4
f 139/3/4 140/3/4 143/3/4
f 143/3/4 140/3/4 144/3/4
f 141/3/4 142/3/4 145/3/4
f 145/3/4 142/3/4 146/3/4
f 147/3/4 148/3/4 150/3/4
f 150/3/4 148/3/4 151/3/4
f 149/3/4 150/3/4 153/3/4
f 151/3/4 152/3/4 153/3/4
f 150/3/4 151/3/4 153/3/4
f 153/3/4 152/3/4 154/3/4
f 154/3/4 152/3/4 155/3/4
f 155/3/4 152/3/4 156/3/4
f 154/3/4 155/3/4 157/3/4
f 157/3/4 155/3/4 158/3/4
f 161/3/5 160/3/5 159/3/5
f 162/3/5 160/3/5 161/3/5
f 167/2/5 164/2/5 163/2/5
f 168/2/5 164/2/5 167/2/5
f 169/2/5 166/2/5 165/2/5
f 170/2/5 166/2/5 169/2/5
f 171/3/5 168/3/5 167/3/5
f 171/3/5 169/3/5 168/3/5
f 171/3/5 170/3/5 169/3/5
f 172/3/5 170/3/5 171/3/5
f 173/3/5 171/3/5 167/3/5
f 174/3/5 170/3/5 172/3/5
f 175/3/5 173/3/5 167/3/5
f 175/3/5 174/3/5 173/3/5
f 176/3/5 174/3/5 175/3/5
f 177/3/5 170/3/5 174/3/5
f 177/3/5 174/3/5 176/3/5
f 178/3/5 170/3/5 177/3/5
f 179/3/5 177/3/5 176/3/5
f 180/3/5 177/3/5 179/3/5
f 187/2/5 182/2/5 181/2/5
f 188/2/5 182/2/5 187/2/5
f 189/1/5 184/1/5 183/1/5
f 190/1/5 184/1/5 189/1/5
f 191/2/5 186/2/5 185/2/5
f 192/2/5 186/2/5 191/2/5
f 197/3/5 194/3/5 193/3/5
f 198/3/5 194/3/5 197/3/5
f 199/3/5 196/3/5 195/3/5
f 200/3/5 196/3/5 199/3/5
f 201/2/6 202/2/6 205/2/6
f 205/2/6 202/2/6 206/2/6
f 203/2/6 204/2/6 207/2/6
f 207/2/6 204/2/6 208/2/6
f 209/2/6 210/2/6 215/2/6
f 215/2/6 210/2/6 216/2/6
f 211/1/6 212/1/6 217/1/6
f 217/1/6 212/1/6 218/1/6
f 213/2/6 214/2/6 219/2/6
f 219/2/6 214/2/6 220/2/6
f 221/3/6 222/3/6 225/3/6
f 225/3/6 222/3/6 226/3/6
f 223/3/6 224/3/6 227/3/6
f 227/3/6 224/3/6 228/3/6
f 229/3/6 230/3/6 231/3/6
f 231/3/6 230/3/6 232/3/6
f 232/3/6 230/3/6 233/3/6
f 233/3/6 230/3/6 234/3/6
f 232/3/6 233/3/6 235/3/6
f 235/3/6 233/3/6 236/3/6
