# MagicaVoxel @ Ephtracy

# group
o 

# material
mtllib Bull_Head.mtl
usemtl palette

# normals
vn -1 0 0
vn 1 0 0
vn 0 0 1
vn 0 0 -1
vn 0 -1 0
vn 0 1 0

# texcoords
vt 0.146484 0.5
vt 0.248047 0.5
vt 0.310547 0.5
vt 0.958984 0.5
vt 0.990234 0.5

# verts
v -0.7 1.3 0.6
v -0.7 1.3 0.5
v -0.7 1.4 0.7
v -0.7 1.4 0.6
v -0.7 1.5 0.8
v -0.7 1.5 0.7
v -0.7 1.5 0.6
v -0.7 1.5 0.5
v -0.7 1.6 0.8
v -0.7 1.6 0.6
v -0.4 0.7 0.7
v -0.4 0.7 0.1
v -0.4 1.3 0.6
v -0.4 1.3 0.5
v -0.4 1.3 0.2
v -0.4 1.3 0.1
v -0.4 1.4 0.7
v -0.4 1.4 0.6
v -0.4 1.4 0.5
v -0.4 1.4 0.2
v -0.4 1.5 0.6
v -0.4 1.5 0.5
v -0.3 0.8 0.8
v -0.3 0.8 0.7
v -0.3 1 0.8
v -0.3 1 0.7
v -0.3 1.3 0.2
v -0.3 1.3 0.1
v -0.3 1.4 0.7
v -0.3 1.4 0.6
v -0.3 1.4 0.5
v -0.3 1.4 0.3
v -0.3 1.4 0.2
v -0.3 1.4 0.1
v -0.3 1.5 0.7
v -0.3 1.5 0.6
v -0.3 1.5 0.5
v -0.3 1.5 0.3
v -0.2 0.8 0.9
v -0.2 0.8 0.8
v -0.2 0.9 0.9
v -0.2 0.9 0.8
v -0.2 1 0.8
v -0.2 1 0.7
v -0.2 1.1 0.8
v -0.2 1.1 0.7
v -0.2 1.4 0.3
v -0.2 1.4 0.2
v -0.2 1.5 0.3
v -0.2 1.5 0.2
v -0.1 0.7 0.9
v -0.1 0.7 0.8
v -0.1 0.8 0.9
v -0.1 0.8 0.8
v -0.1 0.9 0.8
v -0.1 0.9 0.7
v -0.1 1 0.8
v -0.1 1 0.7
v 0.1 0.8 0.9
v 0.1 0.8 0.8
v 0.1 0.9 0.9
v 0.1 0.9 0.8
v 0.2 0.9 0.8
v 0.2 0.9 0.7
v 0.2 1 0.8
v 0.2 1 0.7
v 0.6 1.4 0.7
v 0.6 1.4 0.6
v 0.6 1.4 0.5
v 0.6 1.5 0.8
v 0.6 1.5 0.7
v 0.6 1.5 0.6
v 0.6 1.5 0.5
v 0.6 1.6 0.8
v 0.6 1.6 0.6
v -0.6 1.4 0.7
v -0.6 1.4 0.6
v -0.6 1.4 0.5
v -0.6 1.5 0.8
v -0.6 1.5 0.7
v -0.6 1.5 0.6
v -0.6 1.5 0.5
v -0.6 1.6 0.8
v -0.6 1.6 0.6
v -0.2 0.9 0.8
v -0.2 0.9 0.7
v -0.2 1 0.8
v -0.2 1 0.7
v -0.1 0.8 0.9
v -0.1 0.8 0.8
v -0.1 0.9 0.9
v -0.1 0.9 0.8
v 0.1 0.7 0.9
v 0.1 0.7 0.8
v 0.1 0.8 0.9
v 0.1 0.8 0.8
v 0.1 0.9 0.8
v 0.1 0.9 0.7
v 0.1 1 0.8
v 0.1 1 0.7
v 0.2 0.8 0.9
v 0.2 0.8 0.8
v 0.2 0.9 0.9
v 0.2 0.9 0.8
v 0.2 1 0.8
v 0.2 1 0.7
v 0.2 1.1 0.8
v 0.2 1.1 0.7
v 0.2 1.4 0.3
v 0.2 1.4 0.2
v 0.2 1.5 0.3
v 0.2 1.5 0.2
v 0.3 0.8 0.8
v 0.3 0.8 0.7
v 0.3 1 0.8
v 0.3 1 0.7
v 0.3 1.3 0.2
v 0.3 1.3 0.1
v 0.3 1.4 0.7
v 0.3 1.4 0.6
v 0.3 1.4 0.5
v 0.3 1.4 0.3
v 0.3 1.4 0.2
v 0.3 1.4 0.1
v 0.3 1.5 0.7
v 0.3 1.5 0.6
v 0.3 1.5 0.5
v 0.3 1.5 0.3
v 0.4 0.7 0.7
v 0.4 0.7 0.1
v 0.4 1.3 0.6
v 0.4 1.3 0.5
v 0.4 1.3 0.2
v 0.4 1.3 0.1
v 0.4 1.4 0.7
v 0.4 1.4 0.6
v 0.4 1.4 0.5
v 0.4 1.4 0.2
v 0.4 1.5 0.6
v 0.4 1.5 0.5
v 0.7 1.3 0.6
v 0.7 1.3 0.5
v 0.7 1.4 0.7
v 0.7 1.4 0.6
v 0.7 1.5 0.8
v 0.7 1.5 0.7
v 0.7 1.5 0.6
v 0.7 1.5 0.5
v 0.7 1.6 0.8
v 0.7 1.6 0.6
v -0.2 0.8 0.9
v -0.2 0.9 0.9
v -0.1 0.7 0.9
v -0.1 0.8 0.9
v -0.1 0.9 0.9
v 0.1 0.7 0.9
v 0.1 0.8 0.9
v 0.1 0.9 0.9
v 0.2 0.8 0.9
v 0.2 0.9 0.9
v -0.7 1.5 0.8
v -0.7 1.6 0.8
v -0.6 1.5 0.8
v -0.6 1.6 0.8
v -0.3 0.8 0.8
v -0.3 1 0.8
v -0.2 0.8 0.8
v -0.2 0.9 0.8
v -0.2 1 0.8
v -0.2 1.1 0.8
v -0.1 0.8 0.8
v -0.1 0.9 0.8
v -0.1 1 0.8
v 0.1 0.8 0.8
v 0.1 0.9 0.8
v 0.1 1 0.8
v 0.2 0.8 0.8
v 0.2 0.9 0.8
v 0.2 1 0.8
v 0.2 1.1 0.8
v 0.3 0.8 0.8
v 0.3 1 0.8
v 0.6 1.5 0.8
v 0.6 1.6 0.8
v 0.7 1.5 0.8
v 0.7 1.6 0.8
v -0.7 1.4 0.7
v -0.7 1.5 0.7
v -0.6 1.4 0.7
v -0.6 1.5 0.7
v -0.4 0.7 0.7
v -0.4 1.4 0.7
v -0.3 0.8 0.7
v -0.3 1 0.7
v -0.3 1.1 0.7
v -0.3 1.3 0.7
v -0.3 1.4 0.7
v -0.3 1.5 0.7
v -0.2 0.9 0.7
v -0.2 1 0.7
v -0.2 1.1 0.7
v -0.2 1.2 0.7
v -0.2 1.3 0.7
v -0.2 1.4 0.7
v -0.1 0.9 0.7
v -0.1 1 0.7
v -0.1 1.1 0.7
v -0.1 1.2 0.7
v -0.1 1.3 0.7
v 0.1 0.9 0.7
v 0.1 1 0.7
v 0.1 1.1 0.7
v 0.1 1.2 0.7
v 0.1 1.3 0.7
v 0.2 0.9 0.7
v 0.2 1 0.7
v 0.2 1.1 0.7
v 0.2 1.2 0.7
v 0.2 1.3 0.7
v 0.2 1.4 0.7
v 0.3 0.8 0.7
v 0.3 1 0.7
v 0.3 1.1 0.7
v 0.3 1.3 0.7
v 0.3 1.4 0.7
v 0.3 1.5 0.7
v 0.4 0.7 0.7
v 0.4 1.4 0.7
v 0.6 1.4 0.7
v 0.6 1.5 0.7
v 0.7 1.4 0.7
v 0.7 1.5 0.7
v -0.7 1.3 0.6
v -0.7 1.4 0.6
v -0.6 1.4 0.6
v -0.4 1.3 0.6
v -0.4 1.4 0.6
v -0.4 1.5 0.6
v -0.3 1.4 0.6
v -0.3 1.5 0.6
v 0.3 1.4 0.6
v 0.3 1.5 0.6
v 0.4 1.3 0.6
v 0.4 1.4 0.6
v 0.4 1.5 0.6
v 0.6 1.4 0.6
v 0.7 1.3 0.6
v 0.7 1.4 0.6
v -0.1 0.7 0.8
v -0.1 0.8 0.8
v 0.1 0.7 0.8
v 0.1 0.8 0.8
v -0.7 1.5 0.6
v -0.7 1.6 0.6
v -0.6 1.5 0.6
v -0.6 1.6 0.6
v 0.6 1.5 0.6
v 0.6 1.6 0.6
v 0.7 1.5 0.6
v 0.7 1.6 0.6
v -0.7 1.3 0.5
v -0.7 1.5 0.5
v -0.6 1.4 0.5
v -0.6 1.5 0.5
v -0.4 1.3 0.5
v -0.4 1.4 0.5
v -0.4 1.5 0.5
v -0.3 1.4 0.5
v -0.3 1.5 0.5
v 0.3 1.4 0.5
v 0.3 1.5 0.5
v 0.4 1.3 0.5
v 0.4 1.4 0.5
v 0.4 1.5 0.5
v 0.6 1.4 0.5
v 0.6 1.5 0.5
v 0.7 1.3 0.5
v 0.7 1.5 0.5
v -0.3 1.4 0.3
v -0.3 1.5 0.3
v -0.2 1.4 0.3
v -0.2 1.5 0.3
v 0.2 1.4 0.3
v 0.2 1.5 0.3
v 0.3 1.4 0.3
v 0.3 1.5 0.3
v -0.4 1.3 0.2
v -0.4 1.4 0.2
v -0.3 1.3 0.2
v -0.3 1.4 0.2
v -0.2 1.4 0.2
v -0.2 1.5 0.2
v 0.2 1.4 0.2
v 0.2 1.5 0.2
v 0.3 1.3 0.2
v 0.3 1.4 0.2
v 0.4 1.3 0.2
v 0.4 1.4 0.2
v -0.4 0.7 0.1
v -0.4 1.3 0.1
v -0.3 1.3 0.1
v -0.3 1.4 0.1
v 0.3 1.3 0.1
v 0.3 1.4 0.1
v 0.4 0.7 0.1
v 0.4 1.3 0.1
v -0.1 0.7 0.9
v 0.1 0.7 0.9
v -0.1 0.7 0.8
v 0.1 0.7 0.8
v -0.4 0.7 0.7
v 0.4 0.7 0.7
v -0.4 0.7 0.1
v 0.4 0.7 0.1
v -0.2 0.8 0.9
v -0.1 0.8 0.9
v 0.1 0.8 0.9
v 0.2 0.8 0.9
v -0.3 0.8 0.8
v -0.2 0.8 0.8
v -0.1 0.8 0.8
v 0.1 0.8 0.8
v 0.2 0.8 0.8
v 0.3 0.8 0.8
v -0.3 0.8 0.7
v 0.3 0.8 0.7
v -0.2 1 0.8
v -0.1 1 0.8
v 0.1 1 0.8
v 0.2 1 0.8
v -0.2 1 0.7
v -0.1 1 0.7
v 0.1 1 0.7
v 0.2 1 0.7
v -0.7 1.3 0.6
v -0.4 1.3 0.6
v 0.4 1.3 0.6
v 0.7 1.3 0.6
v -0.7 1.3 0.5
v -0.4 1.3 0.5
v 0.4 1.3 0.5
v 0.7 1.3 0.5
v -0.7 1.4 0.7
v -0.6 1.4 0.7
v 0.6 1.4 0.7
v 0.7 1.4 0.7
v -0.7 1.4 0.6
v -0.6 1.4 0.6
v 0.6 1.4 0.6
v 0.7 1.4 0.6
v -0.7 1.5 0.8
v -0.6 1.5 0.8
v 0.6 1.5 0.8
v 0.7 1.5 0.8
v -0.7 1.5 0.7
v -0.6 1.5 0.7
v 0.6 1.5 0.7
v 0.7 1.5 0.7
v -0.1 0.8 0.9
v 0.1 0.8 0.9
v -0.1 0.8 0.8
v 0.1 0.8 0.8
v -0.2 0.9 0.9
v -0.1 0.9 0.9
v 0.1 0.9 0.9
v 0.2 0.9 0.9
v -0.2 0.9 0.8
v -0.1 0.9 0.8
v 0.1 0.9 0.8
v 0.2 0.9 0.8
v -0.2 0.9 0.7
v -0.1 0.9 0.7
v 0.1 0.9 0.7
v 0.2 0.9 0.7
v -0.3 1 0.8
v -0.2 1 0.8
v 0.2 1 0.8
v 0.3 1 0.8
v -0.3 1 0.7
v -0.2 1 0.7
v 0.2 1 0.7
v 0.3 1 0.7
v -0.2 1.1 0.8
v 0.2 1.1 0.8
v -0.2 1.1 0.7
v -0.1 1.1 0.7
v 0.1 1.1 0.7
v 0.2 1.1 0.7
v -0.4 1.3 0.2
v -0.3 1.3 0.2
v 0.3 1.3 0.2
v 0.4 1.3 0.2
v -0.4 1.3 0.1
v -0.3 1.3 0.1
v 0.3 1.3 0.1
v 0.4 1.3 0.1
v -0.4 1.4 0.7
v -0.3 1.4 0.7
v 0.3 1.4 0.7
v 0.4 1.4 0.7
v -0.6 1.4 0.6
v -0.4 1.4 0.6
v -0.3 1.4 0.6
v 0.3 1.4 0.6
v 0.4 1.4 0.6
v 0.6 1.4 0.6
v -0.6 1.4 0.5
v -0.4 1.4 0.5
v -0.3 1.4 0.5
v 0.3 1.4 0.5
v 0.4 1.4 0.5
v 0.6 1.4 0.5
v -0.3 1.4 0.3
v -0.2 1.4 0.3
v 0.2 1.4 0.3
v 0.3 1.4 0.3
v -0.4 1.4 0.2
v -0.3 1.4 0.2
v -0.2 1.4 0.2
v 0.2 1.4 0.2
v 0.3 1.4 0.2
v 0.4 1.4 0.2
v -0.3 1.4 0.1
v 0.3 1.4 0.1
v -0.3 1.5 0.7
v 0.3 1.5 0.7
v -0.7 1.5 0.6
v -0.6 1.5 0.6
v -0.4 1.5 0.6
v -0.3 1.5 0.6
v 0.3 1.5 0.6
v 0.4 1.5 0.6
v 0.6 1.5 0.6
v 0.7 1.5 0.6
v -0.7 1.5 0.5
v -0.6 1.5 0.5
v -0.4 1.5 0.5
v -0.3 1.5 0.5
v 0.3 1.5 0.5
v 0.4 1.5 0.5
v 0.6 1.5 0.5
v 0.7 1.5 0.5
v -0.3 1.5 0.3
v -0.2 1.5 0.3
v 0.2 1.5 0.3
v 0.3 1.5 0.3
v -0.2 1.5 0.2
v 0.2 1.5 0.2
v -0.7 1.6 0.8
v -0.6 1.6 0.8
v 0.6 1.6 0.8
v 0.7 1.6 0.8
v -0.7 1.6 0.6
v -0.6 1.6 0.6
v 0.6 1.6 0.6
v 0.7 1.6 0.6

# faces
f 4/4/1 2/4/1 1/4/1
f 6/4/1 4/4/1 3/4/1
f 7/4/1 2/4/1 4/4/1
f 7/4/1 4/4/1 6/4/1
f 8/4/1 2/4/1 7/4/1
f 9/4/1 6/4/1 5/4/1
f 9/4/1 7/4/1 6/4/1
f 10/4/1 7/4/1 9/4/1
f 13/3/1 12/3/1 11/3/1
f 14/3/1 12/3/1 13/3/1
f 15/3/1 12/3/1 14/3/1
f 16/3/1 12/3/1 15/3/1
f 17/3/1 13/3/1 11/3/1
f 18/3/1 13/3/1 17/3/1
f 19/3/1 15/3/1 14/3/1
f 20/3/1 15/3/1 19/3/1
f 21/3/1 19/3/1 18/3/1
f 22/3/1 19/3/1 21/3/1
f 25/2/1 24/2/1 23/2/1
f 26/2/1 24/2/1 25/2/1
f 33/3/1 28/3/1 27/3/1
f 34/3/1 28/3/1 33/3/1
f 35/3/1 30/3/1 29/3/1
f 36/3/1 30/3/1 35/3/1
f 37/3/1 32/3/1 31/3/1
f 38/3/1 32/3/1 37/3/1
f 41/4/1 40/4/1 39/4/1
f 42/4/1 40/4/1 41/4/1
f 45/2/1 44/2/1 43/2/1
f 46/2/1 44/2/1 45/2/1
f 49/3/1 48/3/1 47/3/1
f 50/3/1 48/3/1 49/3/1
f 53/4/1 52/4/1 51/4/1
f 54/4/1 52/4/1 53/4/1
f 57/2/1 56/2/1 55/2/1
f 58/2/1 56/2/1 57/2/1
f 61/4/1 60/4/1 59/4/1
f 62/4/1 60/4/1 61/4/1
f 65/2/1 64/2/1 63/2/1
f 66/2/1 64/2/1 65/2/1
f 71/4/1 68/4/1 67/4/1
f 71/4/1 69/4/1 68/4/1
f 72/4/1 69/4/1 71/4/1
f 73/4/1 69/4/1 72/4/1
f 74/4/1 71/4/1 70/4/1
f 74/4/1 72/4/1 71/4/1
f 75/4/1 72/4/1 74/4/1
f 76/4/2 77/4/2 80/4/2
f 77/4/2 78/4/2 80/4/2
f 80/4/2 78/4/2 81/4/2
f 81/4/2 78/4/2 82/4/2
f 79/4/2 80/4/2 83/4/2
f 80/4/2 81/4/2 83/4/2
f 83/4/2 81/4/2 84/4/2
f 85/2/2 86/2/2 87/2/2
f 87/2/2 86/2/2 88/2/2
f 89/4/2 90/4/2 91/4/2
f 91/4/2 90/4/2 92/4/2
f 93/4/2 94/4/2 95/4/2
f 95/4/2 94/4/2 96/4/2
f 97/2/2 98/2/2 99/2/2
f 99/2/2 98/2/2 100/2/2
f 101/4/2 102/4/2 103/4/2
f 103/4/2 102/4/2 104/4/2
f 105/2/2 106/2/2 107/2/2
f 107/2/2 106/2/2 108/2/2
f 109/3/2 110/3/2 111/3/2
f 111/3/2 110/3/2 112/3/2
f 113/2/2 114/2/2 115/2/2
f 115/2/2 114/2/2 116/2/2
f 117/3/2 118/3/2 123/3/2
f 123/3/2 118/3/2 124/3/2
f 119/3/2 120/3/2 125/3/2
f 125/3/2 120/3/2 126/3/2
f 121/3/2 122/3/2 127/3/2
f 127/3/2 122/3/2 128/3/2
f 129/3/2 130/3/2 131/3/2
f 131/3/2 130/3/2 132/3/2
f 132/3/2 130/3/2 133/3/2
f 133/3/2 130/3/2 134/3/2
f 129/3/2 131/3/2 135/3/2
f 135/3/2 131/3/2 136/3/2
f 132/3/2 133/3/2 137/3/2
f 137/3/2 133/3/2 138/3/2
f 136/3/2 137/3/2 139/3/2
f 139/3/2 137/3/2 140/3/2
f 141/4/2 142/4/2 144/4/2
f 143/4/2 144/4/2 146/4/2
f 144/4/2 142/4/2 147/4/2
f 146/4/2 144/4/2 147/4/2
f 147/4/2 142/4/2 148/4/2
f 145/4/2 146/4/2 149/4/2
f 146/4/2 147/4/2 149/4/2
f 149/4/2 147/4/2 150/4/2
f 154/4/3 152/4/3 151/4/3
f 155/4/3 152/4/3 154/4/3
f 156/4/3 154/4/3 153/4/3
f 157/4/3 154/4/3 156/4/3
f 159/4/3 158/4/3 157/4/3
f 160/4/3 158/4/3 159/4/3
f 163/4/3 162/4/3 161/4/3
f 164/4/3 162/4/3 163/4/3
f 167/2/3 166/2/3 165/2/3
f 168/2/3 166/2/3 167/2/3
f 169/2/3 166/2/3 168/2/3
f 173/2/3 170/2/3 169/2/3
f 174/2/3 172/2/3 171/2/3
f 174/2/3 173/2/3 172/2/3
f 175/2/3 173/2/3 174/2/3
f 176/2/3 170/2/3 173/2/3
f 176/2/3 173/2/3 175/2/3
f 179/2/3 170/2/3 176/2/3
f 180/2/3 170/2/3 179/2/3
f 181/2/3 178/2/3 177/2/3
f 181/2/3 179/2/3 178/2/3
f 182/2/3 179/2/3 181/2/3
f 185/4/3 184/4/3 183/4/3
f 186/4/3 184/4/3 185/4/3
f 189/4/3 188/4/3 187/4/3
f 190/4/3 188/4/3 189/4/3
f 193/3/3 192/3/3 191/3/3
f 194/3/3 192/3/3 193/3/3
f 195/3/3 192/3/3 194/3/3
f 196/3/3 192/3/3 195/3/3
f 197/3/3 192/3/3 196/3/3
f 200/3/3 195/3/3 194/3/3
f 201/4/3 196/4/3 195/4/3
f 201/3/3 195/3/3 200/3/3
f 202/4/3 196/4/3 201/4/3
f 203/5/3 197/5/3 196/5/3
f 203/4/3 196/4/3 202/4/3
f 204/3/3 198/3/3 197/3/3
f 204/5/3 197/5/3 203/5/3
f 205/3/3 200/3/3 199/3/3
f 206/3/3 200/3/3 205/3/3
f 207/1/3 202/1/3 201/1/3
f 208/5/3 203/5/3 202/5/3
f 208/1/3 202/1/3 207/1/3
f 209/3/3 204/3/3 203/3/3
f 209/5/3 203/5/3 208/5/3
f 212/3/3 208/3/3 207/3/3
f 212/3/3 209/3/3 208/3/3
f 213/3/3 209/3/3 212/3/3
f 214/3/3 204/3/3 209/3/3
f 214/3/3 209/3/3 213/3/3
f 215/3/3 211/3/3 210/3/3
f 216/3/3 211/3/3 215/3/3
f 217/1/3 213/1/3 212/1/3
f 218/5/3 214/5/3 213/5/3
f 218/1/3 213/1/3 217/1/3
f 219/3/3 204/3/3 214/3/3
f 219/5/3 214/5/3 218/5/3
f 220/3/3 198/3/3 204/3/3
f 220/3/3 204/3/3 219/3/3
f 221/3/3 193/3/3 191/3/3
f 222/3/3 217/3/3 216/3/3
f 223/4/3 219/4/3 218/4/3
f 223/4/3 218/4/3 217/4/3
f 223/3/3 217/3/3 222/3/3
f 224/5/3 220/5/3 219/5/3
f 224/4/3 219/4/3 223/4/3
f 225/3/3 198/3/3 220/3/3
f 225/5/3 220/5/3 224/5/3
f 226/3/3 198/3/3 225/3/3
f 227/3/3 224/3/3 223/3/3
f 227/3/3 223/3/3 222/3/3
f 227/3/3 225/3/3 224/3/3
f 227/3/3 222/3/3 221/3/3
f 227/3/3 221/3/3 191/3/3
f 228/3/3 225/3/3 227/3/3
f 231/4/3 230/4/3 229/4/3
f 232/4/3 230/4/3 231/4/3
f 235/4/3 234/4/3 233/4/3
f 236/4/3 235/4/3 233/4/3
f 237/4/3 235/4/3 236/4/3
f 239/3/3 238/3/3 237/3/3
f 240/3/3 238/3/3 239/3/3
f 244/3/3 242/3/3 241/3/3
f 245/3/3 242/3/3 244/3/3
f 246/4/3 244/4/3 243/4/3
f 247/4/3 246/4/3 243/4/3
f 248/4/3 246/4/3 247/4/3
f 249/4/4 250/4/4 251/4/4
f 251/4/4 250/4/4 252/4/4
f 253/4/4 254/4/4 255/4/4
f 255/4/4 254/4/4 256/4/4
f 257/4/4 258/4/4 259/4/4
f 259/4/4 258/4/4 260/4/4
f 261/4/4 262/4/4 263/4/4
f 263/4/4 262/4/4 264/4/4
f 261/4/4 263/4/4 265/4/4
f 265/4/4 263/4/4 266/4/4
f 266/3/4 267/3/4 268/3/4
f 268/3/4 267/3/4 269/3/4
f 270/3/4 271/3/4 273/3/4
f 273/3/4 271/3/4 274/3/4
f 272/4/4 273/4/4 275/4/4
f 272/4/4 275/4/4 277/4/4
f 275/4/4 276/4/4 277/4/4
f 277/4/4 276/4/4 278/4/4
f 279/3/4 280/3/4 281/3/4
f 281/3/4 280/3/4 282/3/4
f 283/3/4 284/3/4 285/3/4
f 285/3/4 284/3/4 286/3/4
f 287/3/4 288/3/4 289/3/4
f 289/3/4 288/3/4 290/3/4
f 291/3/4 292/3/4 293/3/4
f 293/3/4 292/3/4 294/3/4
f 295/3/4 296/3/4 297/3/4
f 297/3/4 296/3/4 298/3/4
f 299/3/4 300/3/4 301/3/4
f 299/3/4 301/3/4 303/3/4
f 301/3/4 302/3/4 303/3/4
f 303/3/4 302/3/4 304/3/4
f 299/3/4 303/3/4 305/3/4
f 305/3/4 303/3/4 306/3/4
f 309/4/5 308/4/5 307/4/5
f 310/4/5 308/4/5 309/4/5
f 313/3/5 312/3/5 311/3/5
f 314/3/5 312/3/5 313/3/5
f 320/4/5 316/4/5 315/4/5
f 321/4/5 316/4/5 320/4/5
f 322/4/5 318/4/5 317/4/5
f 323/4/5 318/4/5 322/4/5
f 325/2/5 321/2/5 320/2/5
f 325/2/5 324/2/5 323/2/5
f 325/2/5 323/2/5 322/2/5
f 325/2/5 322/2/5 321/2/5
f 325/2/5 320/2/5 319/2/5
f 326/2/5 324/2/5 325/2/5
f 331/2/5 328/2/5 327/2/5
f 332/2/5 328/2/5 331/2/5
f 333/2/5 330/2/5 329/2/5
f 334/2/5 330/2/5 333/2/5
f 339/4/5 336/4/5 335/4/5
f 340/4/5 336/4/5 339/4/5
f 341/4/5 338/4/5 337/4/5
f 342/4/5 338/4/5 341/4/5
f 347/4/5 344/4/5 343/4/5
f 348/4/5 344/4/5 347/4/5
f 349/4/5 346/4/5 345/4/5
f 350/4/5 346/4/5 349/4/5
f 355/4/5 352/4/5 351/4/5
f 356/4/5 352/4/5 355/4/5
f 357/4/5 354/4/5 353/4/5
f 358/4/5 354/4/5 357/4/5
f 359/4/6 360/4/6 361/4/6
f 361/4/6 360/4/6 362/4/6
f 363/4/6 364/4/6 367/4/6
f 367/4/6 364/4/6 368/4/6
f 365/4/6 366/4/6 369/4/6
f 369/4/6 366/4/6 370/4/6
f 367/2/6 368/2/6 371/2/6
f 371/2/6 368/2/6 372/2/6
f 369/2/6 370/2/6 373/2/6
f 373/2/6 370/2/6 374/2/6
f 375/2/6 376/2/6 379/2/6
f 379/2/6 376/2/6 380/2/6
f 377/2/6 378/2/6 381/2/6
f 381/2/6 378/2/6 382/2/6
f 383/2/6 384/2/6 385/2/6
f 385/2/6 384/2/6 386/2/6
f 386/2/6 384/2/6 387/2/6
f 387/2/6 384/2/6 388/2/6
f 389/3/6 390/3/6 393/3/6
f 393/3/6 390/3/6 394/3/6
f 391/3/6 392/3/6 395/3/6
f 395/3/6 392/3/6 396/3/6
f 397/3/6 398/3/6 402/3/6
f 402/3/6 398/3/6 403/3/6
f 399/3/6 400/3/6 404/3/6
f 404/3/6 400/3/6 405/3/6
f 401/4/6 402/4/6 407/4/6
f 407/4/6 402/4/6 408/4/6
f 405/4/6 406/4/6 411/4/6
f 411/4/6 406/4/6 412/4/6
f 408/3/6 409/3/6 413/3/6
f 410/3/6 411/3/6 416/3/6
f 413/3/6 414/3/6 417/3/6
f 408/3/6 413/3/6 417/3/6
f 417/3/6 414/3/6 418/3/6
f 418/3/6 414/3/6 419/3/6
f 415/3/6 416/3/6 420/3/6
f 416/3/6 411/3/6 421/3/6
f 420/3/6 416/3/6 421/3/6
f 421/3/6 411/3/6 422/3/6
f 418/3/6 419/3/6 423/3/6
f 419/3/6 420/3/6 423/3/6
f 420/3/6 421/3/6 423/3/6
f 423/3/6 421/3/6 424/3/6
f 425/3/6 426/3/6 430/3/6
f 430/3/6 426/3/6 431/3/6
f 427/4/6 428/4/6 435/4/6
f 435/4/6 428/4/6 436/4/6
f 429/3/6 430/3/6 437/3/6
f 430/3/6 431/3/6 437/3/6
f 431/3/6 432/3/6 437/3/6
f 437/3/6 432/3/6 438/3/6
f 438/3/6 432/3/6 439/3/6
f 439/3/6 432/3/6 440/3/6
f 433/4/6 434/4/6 441/4/6
f 441/4/6 434/4/6 442/4/6
f 438/3/6 439/3/6 443/3/6
f 443/3/6 439/3/6 444/3/6
f 444/3/6 439/3/6 445/3/6
f 445/3/6 439/3/6 446/3/6
f 444/3/6 445/3/6 447/3/6
f 447/3/6 445/3/6 448/3/6
f 449/4/6 450/4/6 453/4/6
f 453/4/6 450/4/6 454/4/6
f 451/4/6 452/4/6 455/4/6
f 455/4/6 452/4/6 456/4/6
